<svg id="Layer_1" data-name="Layer 1" xmlns="http://www.w3.org/2000/svg" viewBox="0 0 76.51 9.59"><defs><style>.cls-1{fill:#fff;}</style></defs><title>TU Logo White</title><path class="cls-1" d="M206.91,175.38V177h-3.19v8h-1.61v-9.59Z" transform="translate(-202.11 -175.38)"/><path class="cls-1" d="M213.35,175.38V177h-4.8l-1.6-1.61Zm-4.8,4h4.8V181H207v-1.6Zm0,4h4.8V185H207v-.13Z" transform="translate(-202.11 -175.38)"/><path class="cls-1" d="M216,183.56a5,5,0,0,1-1-1.54,4.63,4.63,0,0,1-.38-1.85,4.7,4.7,0,0,1,.38-1.87,4.91,4.91,0,0,1,1-1.51,4.82,4.82,0,0,1,1.54-1,4.76,4.76,0,0,1,3.72,0,5,5,0,0,1,1.54,1l-1.14,1.12a3.11,3.11,0,0,0-2.25-.92,3.29,3.29,0,0,0-1.25.24,3,3,0,0,0-1,.7,3.26,3.26,0,0,0-.68,1,3.21,3.21,0,0,0,0,2.5,3.4,3.4,0,0,0,1.7,1.7,3.34,3.34,0,0,0,1.25.24l1.86,1.24a4.76,4.76,0,0,1-3.72,0A5,5,0,0,1,216,183.56Z" transform="translate(-202.11 -175.38)"/><path class="cls-1" d="M229.42,175.38V185h-1.6v-4H223v4h-1.6v-4l1.6-1.61h4.8v-4Z" transform="translate(-202.11 -175.38)"/><path class="cls-1" d="M239.25,181a3.82,3.82,0,0,1-1.18,2.83,4,4,0,0,1-6.81-2.83v-5.6h1.6V181a2.38,2.38,0,0,0,4.08,1.68,2.31,2.31,0,0,0,.72-1.68Z" transform="translate(-202.11 -175.38)"/><path class="cls-1" d="M244.35,175.38v9.57h0l-8-7.17v-2.42l6.38,5.74v-5.74Z" transform="translate(-202.11 -175.38)"/><path class="cls-1" d="M252.05,180.18a2.66,2.66,0,0,1,.84,2,2.75,2.75,0,0,1-.82,2,2.77,2.77,0,0,1-.9.61,2.71,2.71,0,0,1-1.08.22h-3.6v-1.61h3.6a1.18,1.18,0,0,0,.46-.08,1,1,0,0,0,.4-.26,1.17,1.17,0,0,0,.25-.38,1.13,1.13,0,0,0,0-.91,1.24,1.24,0,0,0-.62-.65,1.31,1.31,0,0,0-.48-.1H244.9v-1.6h5.19a1.25,1.25,0,0,0,.85-.36,1.17,1.17,0,0,0,.25-.38,1.21,1.21,0,0,0,.1-.47,1.19,1.19,0,0,0-.1-.46,1.17,1.17,0,0,0-.25-.38,1,1,0,0,0-.4-.26,1.18,1.18,0,0,0-.46-.08h-3.6l-1.6-1.61h5.19a2.79,2.79,0,0,1,1.08.22,2.77,2.77,0,0,1,.9.61,2.79,2.79,0,0,1,0,4Z" transform="translate(-202.11 -175.38)"/><path class="cls-1" d="M262.79,176.79a4.75,4.75,0,1,1-3.38-1.42A4.59,4.59,0,0,1,262.79,176.79Zm-5.65,1.13a3.2,3.2,0,1,0,2.27-.94A3.07,3.07,0,0,0,257.14,177.92Z" transform="translate(-202.11 -175.38)"/><path class="cls-1" d="M268.24,181.53l2,3.44h-1.83l-2.78-4.81H267a1.62,1.62,0,0,0,1.6-1.61,1.49,1.49,0,0,0-.48-1.12A1.52,1.52,0,0,0,267,177h-3.2l-.18-.18-.83-1.43H267a3.19,3.19,0,0,1,3.19,3.19,3,3,0,0,1-.56,1.81A3.1,3.1,0,0,1,268.24,181.53Z" transform="translate(-202.11 -175.38)"/><path class="cls-1" d="M278.62,175.38v9.57h0l-8-7.17v-2.42l6.38,5.74v-5.74Z" transform="translate(-202.11 -175.38)"/></svg>